<svg width="25" height="17" viewBox="0 0 25 17" fill="none" xmlns="http://www.w3.org/2000/svg">
<g clip-path="url(#clip0_6293_1049)">
<path d="M0.0664062 2.08728C0.0664062 0.982711 0.961837 0.0872803 2.06641 0.0872803H22.0664C23.171 0.0872803 24.0664 0.982711 24.0664 2.08728V14.0873C24.0664 15.1918 23.171 16.0873 22.0664 16.0873H2.06641C0.961836 16.0873 0.0664062 15.1918 0.0664062 14.0873V2.08728Z" fill="#FCE0CF"/>
<path d="M14.3585 8.07843C14.3603 7.64857 14.1992 7.21809 13.8748 6.89369C13.5497 6.56862 13.1182 6.40758 12.6874 6.41017C12.6854 6.41017 12.6834 6.41003 12.6812 6.41003C11.7459 6.41003 11.0039 7.1518 11.0039 8.08744C11.0039 9.01385 11.755 9.76472 12.6812 9.76472C13.6169 9.76472 14.3587 9.02282 14.3587 8.08744C14.3587 8.08437 14.3585 8.08147 14.3585 8.07843Z" fill="#F26E21"/>
<path d="M10.6891 8.79695C10.4384 9.04793 10.207 9.14598 9.95777 9.15129C9.35059 9.14584 8.90418 8.69618 8.90418 8.0551C8.90418 7.73239 9.02637 7.4679 9.21993 7.24195C9.40145 7.06962 9.63529 6.95828 9.9042 6.95828C10.1945 6.95828 10.4204 7.05504 10.6783 7.3131V6.5712C10.4204 6.44224 10.1944 6.37769 9.9042 6.37769C9.49414 6.40699 9.10751 6.57267 8.81095 6.83284C8.72548 6.90974 8.64357 6.99464 8.57412 7.0918C8.35749 7.37257 8.22656 7.71638 8.22656 8.08748C8.22656 9.02281 8.96873 9.73246 9.90415 9.73246C9.9087 9.73246 9.91321 9.73206 9.91762 9.73201C9.92391 9.7321 9.93011 9.73246 9.93636 9.73246C10.1944 9.73246 10.4204 9.66809 10.7106 9.53903L10.6891 8.79695C10.6782 8.80784 10.6999 8.81796 10.6891 8.82827V8.79695Z" fill="#2B3543"/>
<path d="M16.4731 6.83969L15.7426 8.63576L14.9039 6.50659H14.2266L15.5491 9.76465H15.9039L17.291 6.50659H16.6137L16.4731 6.83969Z" fill="#2B3543"/>
<path d="M17.5508 7.92598V9.66803H19.2928H19.3249V9.15172H18.7766H18.1959V8.57121V8.28098H19.2928V7.73242H18.1959V7.05507H19.3249V6.50659H17.5508V7.92598Z" fill="#2B3543"/>
<path d="M2.9698 6.50659H2.06641V9.66803H2.96975C3.45354 9.66803 3.80832 9.53888 4.09864 9.31307C4.45342 9.02275 4.67932 8.57126 4.67932 8.08747C4.67937 7.15174 4.00184 6.50659 2.9698 6.50659ZM3.71165 8.89383C3.51809 9.05505 3.26003 9.15172 2.8729 9.15172H2.67934V7.05502H2.84061C3.22773 7.05502 3.48579 7.11953 3.6794 7.313C3.90517 7.50643 4.03427 7.79692 4.03427 8.08733C4.06652 8.37765 3.93751 8.70009 3.71165 8.89383Z" fill="#2B3543"/>
<path d="M5.58164 6.50623H4.96875V9.66757H5.58164V6.50623Z" fill="#2B3543"/>
<path d="M7.13027 7.73239C6.74323 7.60338 6.64634 7.50653 6.64634 7.34531C6.64634 7.15175 6.8399 6.99049 7.09797 6.99049C7.29153 6.99049 7.45279 7.05504 7.6141 7.2486L7.93676 6.82927C7.67861 6.60336 7.35617 6.47449 7.0013 6.47449C6.45278 6.47449 6.00115 6.86161 6.00115 7.37756C6.00115 7.82928 6.19489 8.0228 6.77544 8.24861C7.03351 8.34524 7.13031 8.37762 7.19495 8.44213C7.32374 8.50654 7.38838 8.63569 7.38838 8.76457C7.38838 9.02268 7.19495 9.21628 6.90445 9.21628C6.61386 9.21628 6.35602 9.05502 6.22697 8.79691L5.83984 9.18403C6.1303 9.60336 6.48512 9.79688 6.93675 9.79688C7.58185 9.79688 8.03325 9.37755 8.03325 8.76457C8.03334 8.21631 7.83996 7.9905 7.13027 7.73239Z" fill="#2B3543"/>
<path d="M21.0649 8.34527C21.5486 8.24864 21.8067 7.92594 21.8067 7.44219C21.8067 6.86164 21.3873 6.50659 20.6777 6.50659H19.7422V9.66803H20.3551V8.40982H20.452L21.3227 9.66803H22.0647L21.0649 8.34527ZM20.5486 7.95814H20.3551V6.99052H20.5486C20.9357 6.99052 21.1616 7.15174 21.1616 7.47453C21.1616 7.79697 20.9357 7.95814 20.5486 7.95814Z" fill="#2B3543"/>
</g>
<defs>
<clipPath id="clip0_6293_1049">
<rect width="24" height="16" fill="white" transform="translate(0.0664062 0.0872803)"/>
</clipPath>
</defs>
</svg>
