<svg width="37" height="37" viewBox="0 0 37 37" fill="none" xmlns="http://www.w3.org/2000/svg">
<g clip-path="url(#clip0_6293_1011)">
<path d="M21.2281 10.8081H15.1529C12.8307 10.8081 10.9414 12.6974 10.9414 15.0196V21.0948C10.9414 23.417 12.8307 25.3062 15.1529 25.3062H21.2281C23.5503 25.3062 25.4395 23.417 25.4395 21.0948V15.0196C25.4395 12.6974 23.5503 10.8081 21.2281 10.8081ZM24.3069 21.0948C24.3069 22.7924 22.9257 24.1736 21.2281 24.1736H15.1529C13.4552 24.1736 12.0741 22.7924 12.0741 21.0948V15.0196C12.0741 13.3219 13.4552 11.9408 15.1529 11.9408H21.2281C22.9257 11.9408 24.3069 13.3219 24.3069 15.0196V21.0948Z" fill="#2B3543"/>
<path d="M18.189 14.1499C16.0342 14.1499 14.2812 15.9029 14.2812 18.0576C14.2812 20.2123 16.0342 21.9653 18.189 21.9653C20.3437 21.9653 22.0967 20.2123 22.0967 18.0576C22.0967 15.9029 20.3437 14.1499 18.189 14.1499ZM18.189 20.8326C16.6588 20.8326 15.4139 19.5878 15.4139 18.0576C15.4139 16.5275 16.6588 15.2826 18.189 15.2826C19.7191 15.2826 20.964 16.5275 20.964 18.0576C20.964 19.5878 19.7191 20.8326 18.189 20.8326Z" fill="#2B3543"/>
<path d="M22.1562 14.6595C22.469 14.6595 22.7225 14.406 22.7225 14.0932C22.7225 13.7804 22.469 13.5269 22.1562 13.5269C21.8434 13.5269 21.5898 13.7804 21.5898 14.0932C21.5898 14.406 21.8434 14.6595 22.1562 14.6595Z" fill="#2B3543"/>
</g>
<defs>
<clipPath id="clip0_6293_1011">
<rect width="14.4981" height="14.4981" fill="white" transform="translate(10.9414 10.8081)"/>
</clipPath>
</defs>
</svg>
