<svg width="25" height="17" viewBox="0 0 25 17" fill="none" xmlns="http://www.w3.org/2000/svg">
<g clip-path="url(#clip0_6293_1071)">
<path d="M0.0664062 2.12341C0.0664062 1.01884 0.961837 0.123413 2.06641 0.123413H22.0664C23.171 0.123413 24.0664 1.01884 24.0664 2.12341V14.1234C24.0664 15.228 23.171 16.1234 22.0664 16.1234H2.06641C0.961836 16.1234 0.0664062 15.228 0.0664062 14.1234V2.12341Z" fill="#FDEACE"/>
<path d="M14.5708 3.38703L9.40625 3.40479L9.56275 12.8597L14.7273 12.8419L14.5708 3.38703Z" fill="#FF5F00"/>
<path d="M9.74523 8.15138C9.71327 6.22832 10.5747 4.51961 11.9241 3.41126C10.9056 2.61204 9.62871 2.13144 8.24456 2.13618C4.96545 2.14741 2.35724 4.84877 2.41254 8.17649C2.46784 11.5042 5.16553 14.1874 8.44465 14.1762C9.82879 14.1714 11.0895 13.6821 12.0814 12.876C10.6956 11.7938 9.77719 10.0744 9.74523 8.15138Z" fill="#EB001B"/>
<path d="M21.7176 8.07028C21.7729 11.398 19.1646 14.0994 15.8855 14.1106C14.5014 14.1153 13.2245 13.6347 12.206 12.8355C13.5718 11.7271 14.4168 10.0184 14.3849 8.09539C14.3529 6.17234 13.4348 4.46972 12.0487 3.37074C13.0406 2.56463 14.3013 2.07534 15.6855 2.0706C18.9646 2.05937 21.6625 4.75928 21.7176 8.07028Z" fill="#F79E1B"/>
</g>
<defs>
<clipPath id="clip0_6293_1071">
<rect width="24" height="16" fill="white" transform="translate(0.0664062 0.123413)"/>
</clipPath>
</defs>
</svg>
