<svg width="25" height="17" viewBox="0 0 25 17" fill="none" xmlns="http://www.w3.org/2000/svg">
<g clip-path="url(#clip0_6293_1061)">
<path d="M0.0664062 2.08728C0.0664062 0.982711 0.961837 0.0872803 2.06641 0.0872803H22.0664C23.171 0.0872803 24.0664 0.982711 24.0664 2.08728V14.0873C24.0664 15.1918 23.171 16.0873 22.0664 16.0873H2.06641C0.961836 16.0873 0.0664062 15.1918 0.0664062 14.0873V2.08728Z" fill="#CCFFE8"/>
<path fill-rule="evenodd" clip-rule="evenodd" d="M2.87561 7.3538C2.83107 7.46516 2.8088 7.58394 2.7791 7.70272C2.70486 8.05907 2.64547 8.43769 2.56381 8.79404C2.40048 8.79404 2.22973 8.79404 2.06641 8.79404C2.252 7.59136 2.5935 6.41839 2.74198 5.12663C2.90531 5.12663 3.06863 5.12663 3.22453 5.12663C3.20226 5.24541 3.17257 5.35677 3.15772 5.47555C3.15772 5.48298 3.14287 5.4904 3.14287 5.50525C3.36559 5.21571 3.70709 5.01527 4.24903 5.07466C4.78356 5.12663 5.07309 5.54979 5.09536 6.04719C5.14733 6.99745 4.6425 7.85862 3.60315 7.78439C3.26165 7.76211 3.00182 7.63591 2.87561 7.3538ZM3.57346 5.54979C3.13545 5.77251 2.71229 6.79701 3.20969 7.23502C3.53634 7.52455 4.04859 7.36865 4.26388 7.10139C4.50887 6.79701 4.73159 5.92099 4.36039 5.60918C4.23419 5.50525 4.03374 5.46813 3.84814 5.4904C3.71451 5.49782 3.6477 5.51267 3.57346 5.54979Z" fill="#030000"/>
<path fill-rule="evenodd" clip-rule="evenodd" d="M7.38864 7.73241C7.23274 7.73241 7.07684 7.73241 6.91351 7.73241C6.93578 7.58393 6.96548 7.44288 6.99517 7.30182C6.85412 7.50969 6.60913 7.74726 6.25278 7.78438C5.74053 7.83634 5.27283 7.57651 5.22828 7.15334C5.21344 7.01229 5.22086 6.78215 5.33964 6.60398C5.6366 6.13627 6.40868 6.10657 7.17335 6.12885C7.40349 5.28252 6.17112 5.40873 5.74796 5.68341C5.77023 5.52009 5.80735 5.36418 5.82962 5.20086C6.59428 4.96329 7.62621 5.02268 7.6856 5.84674C7.70787 6.17339 7.61136 6.49262 7.55197 6.80442C7.49258 7.1088 7.43318 7.40576 7.38864 7.73241ZM5.77023 7.05683C5.78508 7.27213 6.02264 7.39091 6.21566 7.39091C6.74276 7.39833 6.99517 6.93805 7.07684 6.48519C6.48292 6.4555 5.73311 6.52974 5.77023 7.05683Z" fill="#030000"/>
<path fill-rule="evenodd" clip-rule="evenodd" d="M8.53153 5.13403C8.64289 5.82446 8.77652 6.49261 8.88046 7.19788C9.27393 6.5223 9.6377 5.81703 10.0237 5.13403C10.2019 5.13403 10.3801 5.13403 10.5657 5.13403C10.0906 5.99521 9.53376 6.93804 8.99924 7.84376C8.83592 8.12587 8.67259 8.50449 8.43502 8.69008C8.22716 8.85341 7.82626 8.89053 7.49219 8.82371C7.49961 8.67524 7.55158 8.56388 7.559 8.42282C7.62582 8.4154 7.70748 8.45994 7.78914 8.45994C8.15292 8.45994 8.35336 8.12587 8.48699 7.86603C8.33109 6.96774 8.16034 6.07687 8.00444 5.17115C7.98959 5.1563 7.99701 5.14888 8.00444 5.13403C8.18261 5.13403 8.36078 5.13403 8.53153 5.13403Z" fill="#030000"/>
<path fill-rule="evenodd" clip-rule="evenodd" d="M10.7812 9.25434C10.6699 9.88537 10.5288 10.4793 10.4175 11.1103C10.0686 11.1103 9.71963 11.1103 9.36328 11.1103C9.52661 10.3382 9.66766 9.57357 9.82356 8.8089C9.97946 8.05167 10.1651 7.29443 10.2541 6.49265C10.5363 6.47037 10.9149 6.47037 11.197 6.49265C11.1896 6.67082 11.145 6.8193 11.1302 6.99005C11.4049 6.71536 11.7018 6.35159 12.3328 6.41098C12.9342 6.47037 13.2683 6.9752 13.3128 7.61366C13.3945 8.71239 12.8599 9.78886 11.8948 9.8631C11.2935 9.90764 11.0114 9.63296 10.7812 9.25434ZM11.2044 7.61366C10.9594 7.96258 10.8778 8.63073 11.1896 8.89057C11.3826 9.05389 11.7389 8.97223 11.9023 8.8386C12.1101 8.66785 12.2586 8.3412 12.2512 7.93288C12.2438 7.56169 12.0804 7.24988 11.687 7.30185C11.4568 7.33155 11.3158 7.45033 11.2044 7.61366Z" fill="#009651"/>
<path fill-rule="evenodd" clip-rule="evenodd" d="M16.2008 9.79625C15.9261 9.78883 15.6143 9.8111 15.3619 9.7814C15.3916 9.63293 15.3916 9.44733 15.4139 9.29885C15.3322 9.38051 15.2728 9.4993 15.1689 9.59581C14.8274 9.90761 14.0627 9.97443 13.6841 9.66262C13.2758 9.32112 13.3426 8.50449 13.6841 8.15557C14.0775 7.74725 14.8199 7.64332 15.5846 7.72498C15.6588 7.41318 15.451 7.22016 15.1911 7.18304C14.8125 7.13107 14.3077 7.2944 14.085 7.42803C14.1295 7.16077 14.1444 6.87123 14.1963 6.60397C14.4636 6.50746 14.716 6.43322 15.0352 6.41838C15.9187 6.35898 16.5274 6.65594 16.5868 7.41318C16.6165 7.81407 16.4977 8.22981 16.4087 8.62328C16.327 9.00932 16.2676 9.40279 16.2008 9.79625ZM15.1392 8.31147C14.8199 8.3189 14.471 8.42283 14.3968 8.66039C14.3374 8.86826 14.4859 9.06129 14.6418 9.09098C15.1317 9.19492 15.4658 8.71236 15.5029 8.32632C15.3916 8.30405 15.2283 8.31147 15.1392 8.31147Z" fill="#009651"/>
<path fill-rule="evenodd" clip-rule="evenodd" d="M19.4395 6.60399C19.3875 6.87125 19.291 7.09397 19.239 7.36123C18.9792 7.27214 18.6674 7.13851 18.2591 7.18306C18.0957 7.20533 17.9324 7.28699 17.9324 7.45032C17.9398 7.65076 18.2442 7.725 18.4298 7.79924C18.6896 7.9106 19.0014 8.05908 19.1277 8.28179C19.3429 8.66784 19.1277 9.23205 18.8975 9.46962C18.7045 9.67006 18.3407 9.83339 17.9695 9.86309C17.487 9.9002 16.9821 9.81112 16.5664 9.69976C16.6258 9.42508 16.6926 9.17266 16.7669 8.92025C17.0415 9.03161 17.3533 9.13554 17.7765 9.09842C17.9769 9.07615 18.1997 9.00934 18.17 8.77177C18.1477 8.57875 17.8582 8.51193 17.6429 8.42285C17.242 8.25952 16.945 8.05165 16.945 7.50971C16.945 6.39612 18.4892 6.21052 19.4395 6.60399Z" fill="#009651"/>
<path fill-rule="evenodd" clip-rule="evenodd" d="M22.068 6.60402C22.0086 6.86386 21.9269 7.10885 21.8527 7.36126C21.6077 7.26475 21.2885 7.13854 20.8802 7.18309C20.7168 7.19794 20.5535 7.2796 20.5535 7.45035C20.5609 7.65822 20.9321 7.76958 21.1029 7.84381C21.4518 7.99229 21.7859 8.15562 21.8304 8.55651C21.875 8.94998 21.7116 9.2692 21.4815 9.4845C21.2662 9.69237 20.947 9.83342 20.5906 9.86312C20.1006 9.90024 19.6255 9.81115 19.1875 9.69979C19.232 9.41768 19.3211 9.18754 19.3731 8.92028C19.5735 8.97967 19.7666 9.07618 20.0041 9.09846C20.3382 9.12815 20.7911 9.10588 20.7836 8.81635C20.7762 8.50454 20.1303 8.43773 19.8779 8.23728C19.6032 8.02199 19.4325 7.49489 19.6478 7.0643C20.0041 6.39615 21.2291 6.24767 22.068 6.60402Z" fill="#009651"/>
</g>
<defs>
<clipPath id="clip0_6293_1061">
<rect width="24" height="16" fill="white" transform="translate(0.0664062 0.0872803)"/>
</clipPath>
</defs>
</svg>
