<svg width="25" height="17" viewBox="0 0 25 17" fill="none" xmlns="http://www.w3.org/2000/svg">
<g clip-path="url(#clip0_6293_1078)">
<path d="M0.0664062 2.46082C0.0664062 1.35625 0.961837 0.460815 2.06641 0.460815H22.0664C23.171 0.460815 24.0664 1.35625 24.0664 2.46082V14.4608C24.0664 15.5654 23.171 16.4608 22.0664 16.4608H2.06641C0.961836 16.4608 0.0664062 15.5654 0.0664062 14.4608V2.46082Z" fill="#CCDEFF"/>
<path d="M5.45182 6.21953C5.20114 6.04719 4.87402 5.96082 4.47046 5.96082H2.9081C2.78439 5.96082 2.71604 6.02269 2.70306 6.14631L2.0684 10.1302C2.0618 10.1694 2.07159 10.2051 2.09768 10.2377C2.12361 10.2703 2.15624 10.2865 2.19531 10.2865H2.93741C3.06758 10.2865 3.13912 10.2248 3.15225 10.101L3.32799 9.02693C3.3344 8.97487 3.3573 8.93255 3.39637 8.89996C3.43541 8.86743 3.48423 8.84614 3.54282 8.83641C3.60141 8.82674 3.65666 8.82185 3.70883 8.82185C3.76085 8.82185 3.82267 8.82516 3.89439 8.83164C3.96593 8.83812 4.01154 8.84131 4.03109 8.84131C4.59089 8.84131 5.03029 8.68357 5.34932 8.36773C5.66821 8.05208 5.82783 7.61435 5.82783 7.05436C5.82783 6.6703 5.70238 6.39204 5.45182 6.21944V6.21953ZM4.64629 7.41578C4.61363 7.64366 4.52911 7.79331 4.39241 7.86494C4.25568 7.93666 4.0604 7.97236 3.80655 7.97236L3.48429 7.98209L3.65033 6.93725C3.66329 6.8657 3.70558 6.82989 3.77724 6.82989H3.96283C4.22309 6.82989 4.41199 6.86741 4.52917 6.94214C4.64629 7.01706 4.68535 7.17497 4.64629 7.41578Z" fill="#003087"/>
<path d="M21.9393 5.96082H21.2168C21.145 5.96082 21.1027 5.99663 21.0898 6.06829L20.4551 10.1304L20.4453 10.1499C20.4453 10.1826 20.4583 10.2134 20.4844 10.2427C20.5103 10.272 20.543 10.2866 20.582 10.2866H21.2266C21.3501 10.2866 21.4185 10.2249 21.4317 10.1011L22.0663 6.10736V6.09766C22.0663 6.00648 22.0239 5.96094 21.9393 5.96094V5.96082Z" fill="#009CDE"/>
<path d="M13.2105 7.53306C13.2105 7.50059 13.1975 7.46961 13.1716 7.44039C13.1455 7.41111 13.1162 7.39636 13.0837 7.39636H12.3318C12.2601 7.39636 12.2015 7.42907 12.156 7.49399L11.121 9.01733L10.6913 7.55264C10.6586 7.44856 10.5871 7.39636 10.4765 7.39636H9.74404C9.71141 7.39636 9.68213 7.41105 9.65626 7.44039C9.63014 7.46961 9.61719 7.50065 9.61719 7.53306C9.61719 7.54616 9.68067 7.73814 9.80758 8.10919C9.93449 8.48036 10.0712 8.88072 10.2177 9.31039C10.3642 9.73998 10.4406 9.96794 10.4471 9.99376C9.9133 10.723 9.6465 11.1135 9.6465 11.1655C9.6465 11.2502 9.68873 11.2925 9.77344 11.2925H10.5253C10.5969 11.2925 10.6554 11.26 10.7011 11.1949L13.1911 7.60138C13.2041 7.58848 13.2105 7.5658 13.2105 7.53303V7.53306Z" fill="#003087"/>
<path d="M20.2125 7.39635H19.4704C19.3791 7.39635 19.324 7.5038 19.3045 7.71867C19.135 7.45834 18.826 7.328 18.3767 7.328C17.908 7.328 17.5093 7.5038 17.1806 7.85533C16.8518 8.20687 16.6875 8.62037 16.6875 9.09553C16.6875 9.47968 16.7998 9.78561 17.0243 10.0134C17.2489 10.2414 17.5499 10.3551 17.9276 10.3551C18.1164 10.3551 18.3084 10.316 18.5037 10.238C18.699 10.1599 18.8518 10.0558 18.9627 9.9255C18.9627 9.93204 18.9561 9.96123 18.9432 10.0133C18.93 10.0655 18.9236 10.1046 18.9236 10.1305C18.9236 10.2347 18.9658 10.2867 19.0506 10.2867H19.7244C19.8479 10.2867 19.9196 10.225 19.9391 10.1012L20.3395 7.55257C20.3459 7.51347 20.3362 7.47774 20.3102 7.44515C20.284 7.41268 20.2515 7.39635 20.2125 7.39635ZM18.9382 9.32009C18.7722 9.48285 18.572 9.56418 18.3377 9.56418C18.1488 9.56418 17.996 9.51219 17.8788 9.40796C17.7615 9.30404 17.7029 9.1608 17.7029 8.97832C17.7029 8.73763 17.7843 8.53402 17.9471 8.36804C18.1096 8.20203 18.3116 8.11906 18.5525 8.11906C18.7346 8.11906 18.886 8.17275 19.0066 8.28011C19.1269 8.38756 19.1873 8.53566 19.1873 8.7245C19.1872 8.95883 19.1042 9.15743 18.9382 9.32009Z" fill="#009CDE"/>
<path d="M9.11886 7.39635H8.37672C8.28545 7.39635 8.23024 7.5038 8.21069 7.71867C8.03492 7.45834 7.72568 7.328 7.28303 7.328C6.81432 7.328 6.41554 7.5038 6.08684 7.85533C5.75806 8.20687 5.59375 8.62037 5.59375 9.09553C5.59375 9.47968 5.70606 9.78561 5.93066 10.0134C6.15525 10.2414 6.45625 10.3551 6.83387 10.3551C7.01605 10.3551 7.20495 10.316 7.40021 10.238C7.59549 10.1599 7.75174 10.0558 7.86892 9.9255C7.8428 10.0036 7.82985 10.0719 7.82985 10.1305C7.82985 10.2347 7.87214 10.2867 7.95678 10.2867H8.63054C8.75413 10.2867 8.82582 10.225 8.84537 10.1012L9.24571 7.55257C9.25212 7.51347 9.24239 7.47774 9.21643 7.44515C9.19037 7.41268 9.15787 7.39635 9.11886 7.39635ZM7.84456 9.32493C7.67853 9.48461 7.475 9.56418 7.23429 9.56418C7.04539 9.56418 6.89404 9.51219 6.78021 9.40796C6.66622 9.30404 6.60931 9.1608 6.60931 8.97832C6.60931 8.73763 6.69064 8.53402 6.85345 8.36804C7.01608 8.20203 7.21791 8.11903 7.45886 8.11903C7.64104 8.11903 7.79239 8.17275 7.91294 8.28011C8.03328 8.38756 8.09357 8.53566 8.09357 8.7245C8.09354 8.96536 8.01057 9.16561 7.84456 9.32493Z" fill="#003087"/>
<path d="M16.5456 6.21953C16.295 6.04719 15.9679 5.96082 15.5643 5.96082H14.0117C13.8815 5.96082 13.8098 6.02269 13.7969 6.14631L13.1621 10.1302C13.1556 10.1694 13.1653 10.2051 13.1915 10.2377C13.2173 10.2703 13.25 10.2865 13.2891 10.2865H14.0897C14.1678 10.2865 14.2199 10.2442 14.246 10.1596L14.4218 9.02693C14.4282 8.97487 14.451 8.93255 14.4901 8.89996C14.5292 8.86743 14.578 8.84614 14.6366 8.83641C14.6952 8.82674 14.7504 8.82185 14.8026 8.82185C14.8547 8.82185 14.9164 8.82516 14.9881 8.83164C15.0597 8.83812 15.1054 8.84131 15.1248 8.84131C15.6847 8.84131 16.124 8.68357 16.4431 8.36773C16.7621 8.05208 16.9215 7.61435 16.9215 7.05436C16.9216 6.6703 16.7962 6.39201 16.5456 6.21944V6.21953ZM15.5448 7.82584C15.4015 7.92347 15.1867 7.97227 14.9003 7.97227L14.5878 7.98206L14.7538 6.93719C14.7667 6.86567 14.809 6.8298 14.8807 6.8298H15.0564C15.1997 6.8298 15.3135 6.83634 15.3983 6.84932C15.4828 6.86239 15.5643 6.90301 15.6424 6.97133C15.7206 7.03971 15.7596 7.13904 15.7596 7.26917C15.7596 7.54268 15.6879 7.72812 15.5448 7.82584Z" fill="#009CDE"/>
</g>
<defs>
<clipPath id="clip0_6293_1078">
<rect width="24" height="16" fill="white" transform="translate(0.0664062 0.460815)"/>
</clipPath>
</defs>
</svg>
