<svg width="25" height="17" viewBox="0 0 25 17" fill="none" xmlns="http://www.w3.org/2000/svg">
<g clip-path="url(#clip0_6293_1043)">
<path d="M0.0664062 2.08728C0.0664062 0.982711 0.961837 0.0872803 2.06641 0.0872803H22.0664C23.171 0.0872803 24.0664 0.982711 24.0664 2.08728V14.0873C24.0664 15.1918 23.171 16.0873 22.0664 16.0873H2.06641C0.961836 16.0873 0.0664062 15.1918 0.0664062 14.0873V2.08728Z" fill="#FCE6CF"/>
<path d="M15.4192 9.63263C15.6185 9.71805 15.704 10.0028 15.704 10.1451C15.7324 10.3729 15.6755 10.4868 15.5901 10.4868C15.5046 10.4868 15.3907 10.4014 15.2769 10.2021C15.163 10.0028 15.106 9.80347 15.163 9.68958C15.2484 9.63263 15.3338 9.60416 15.4192 9.63263Z" fill="#F28A1A"/>
<path d="M14.2546 10.5153C14.3685 10.5153 14.5109 10.5722 14.6532 10.6861C14.881 10.8854 14.9664 11.1132 14.8525 11.284C14.7956 11.3694 14.6532 11.4264 14.5393 11.4264C14.397 11.4264 14.2546 11.3694 14.1692 11.284C13.9414 11.0847 13.8845 10.8 14.0268 10.6292C14.0553 10.5722 14.1407 10.5153 14.2546 10.5153Z" fill="#F28A1A"/>
<path d="M11.5482 12.7646C8.58703 12.7646 6.19531 10.3729 6.19531 7.44018C6.19531 4.50748 8.58703 2.08728 11.5482 2.08728C14.5094 2.08728 16.9011 4.479 16.9011 7.44018C16.9011 8.43673 16.6164 9.37634 16.1608 10.1736C16.1324 10.2021 16.1039 10.2021 16.1039 10.1451C15.9046 8.83535 15.1073 8.12353 13.9684 7.89575C13.8545 7.86728 13.8545 7.81033 13.9969 7.81033C14.367 7.78186 14.8511 7.78186 15.1358 7.8388C15.1643 7.69644 15.1643 7.55407 15.1643 7.44018C15.1643 5.50403 13.5698 3.90955 11.6336 3.90955C9.69748 3.90955 8.103 5.50403 8.103 7.44018C8.103 9.37634 9.69748 10.9708 11.6336 10.9708H11.8045C11.7475 10.6576 11.7191 10.3444 11.7475 10.0027C11.7475 9.77496 11.8045 9.74649 11.8899 9.91732C12.3739 10.7715 13.0858 11.5118 14.4524 11.825C15.5629 12.0813 16.6733 12.366 17.8977 13.8751C18.0116 14.0174 17.8407 14.1598 17.7268 14.0459C16.5025 12.9639 15.3921 12.5938 14.367 12.5938C13.0858 12.6222 12.317 12.7646 11.5482 12.7646Z" fill="#F28A1A"/>
</g>
<defs>
<clipPath id="clip0_6293_1043">
<rect width="24" height="16" fill="white" transform="translate(0.0664062 0.0872803)"/>
</clipPath>
</defs>
</svg>
