<svg width="37" height="37" viewBox="0 0 37 37" fill="none" xmlns="http://www.w3.org/2000/svg">
<path d="M24.3011 23.4608C24.9116 23.365 26.1749 23.1441 26.4166 22.5878C26.5385 22.3013 26.3644 22.0683 26.1421 22.0328V22.0321C23.9945 21.6786 23.0264 19.4788 22.9869 19.385C22.3918 18.3179 24.0072 18.4973 24.6425 17.8466C25.2625 17.2086 24.2683 16.5177 23.6464 16.8109C23.3913 16.9308 23.009 17.07 22.7546 16.9535C22.8149 15.9433 22.9816 14.2683 22.5725 13.3538C21.1968 10.2722 17.1398 10.1611 15.2546 11.9499C13.769 13.3585 13.9511 14.8065 14.0903 16.9535C13.6284 17.155 13.1718 16.7547 12.8391 16.7547C12.4896 16.7547 12.0833 16.9816 12.0177 17.3237C11.9347 17.773 12.4227 18.0622 12.8451 18.2289C13.5648 18.5114 14.249 18.5951 13.8694 19.3663C13.8661 19.3723 13.8634 19.3783 13.8614 19.3844C13.3238 20.6122 12.1502 21.7925 10.7055 22.0308C10.4725 22.0689 10.3132 22.3146 10.4297 22.5858V22.5871C10.6687 23.1441 11.944 23.367 12.5459 23.4608C12.732 23.8089 12.5894 24.4964 13.1658 24.4964C13.3901 24.4964 13.8239 24.3498 14.3775 24.3498C15.1843 24.3498 15.4594 24.5259 16.1061 24.9825C16.7702 25.4518 17.5 25.9104 18.4071 25.8441C19.3517 25.903 20.0533 25.4685 20.7415 24.9838L20.7422 24.9825C21.413 24.5105 21.8923 24.1617 23.313 24.4409C24.364 24.6444 24.0574 23.9327 24.3011 23.4608Z" fill="#2B3543"/>
</svg>
