<svg width="36" height="36" viewBox="0 0 36 36" fill="none" xmlns="http://www.w3.org/2000/svg">
<path d="M23.988 15.5577C24.5893 15.1308 25.095 14.598 25.5071 13.9844V13.9838C24.957 14.2246 24.3718 14.3848 23.7607 14.4624C24.3891 14.0873 24.8689 13.4977 25.0944 12.7875C24.5086 13.1368 23.8617 13.3832 23.1724 13.5212C22.6161 12.9285 21.8233 12.562 20.9584 12.562C19.2804 12.562 17.9295 13.924 17.9295 15.5934C17.9295 15.8337 17.9498 16.0647 17.9997 16.2846C15.4802 16.1614 13.2502 14.954 11.752 13.114C11.4908 13.568 11.3368 14.0873 11.3368 14.646C11.3368 15.6957 11.8771 16.6259 12.6834 17.1649C12.1962 17.1557 11.7188 17.014 11.314 16.7916V16.8249C11.314 18.2978 12.3643 19.5212 13.7424 19.8033C13.4954 19.8711 13.2268 19.9031 12.9477 19.9031C12.7537 19.9031 12.5578 19.892 12.3742 19.8514C12.7666 21.0514 13.8816 21.9341 15.206 21.9631C14.1748 22.7695 12.8652 23.2555 11.4477 23.2555C11.1995 23.2555 10.9611 23.2444 10.7227 23.2142C12.0656 24.0797 13.6561 24.5744 15.3724 24.5744C20.7213 24.5744 24.2073 20.112 23.988 15.5577Z" fill="#2B3543"/>
</svg>
