<svg width="88" height="60" viewBox="0 0 88 88" fill="none" xmlns="http://www.w3.org/2000/svg">
<circle cx="44" cy="44" r="44" fill="white"/>
<g clip-path="url(#clip0_4515_2296)">
<path d="M55.3346 58.3335H32.668C32.1213 58.3335 31.668 57.8802 31.668 57.3335C31.668 56.7868 32.1213 56.3335 32.668 56.3335H55.3346C55.8813 56.3335 56.3346 56.7868 56.3346 57.3335C56.3346 57.8802 55.8813 58.3335 55.3346 58.3335Z" fill="#292D32"/>
<path d="M53.3352 52.3333C53.0819 52.3333 52.8285 52.2399 52.6285 52.0399L33.9619 33.3733C33.5752 32.9866 33.5752 32.3466 33.9619 31.9599C34.3485 31.5733 34.9885 31.5733 35.3752 31.9599L54.0419 50.6266C54.4285 51.0133 54.4285 51.6533 54.0419 52.0399C53.8419 52.2399 53.5885 52.3333 53.3352 52.3333Z" fill="#292D32"/>
<path d="M34.668 47.3598C34.1213 47.3598 33.668 46.9065 33.668 46.3598V32.6665C33.668 32.1198 34.1213 31.6665 34.668 31.6665H48.3613C48.908 31.6665 49.3613 32.1198 49.3613 32.6665C49.3613 33.2132 48.908 33.6665 48.3613 33.6665H35.668V46.3598C35.668 46.9065 35.2146 47.3598 34.668 47.3598Z" fill="#292D32"/>
</g>
<defs>
<clipPath id="clip0_4515_2296">
<rect width="32" height="32" fill="white" transform="translate(28 28)"/>
</clipPath>
</defs>
</svg>
